<svg width="40" height="40" viewBox="0 0 40 40" fill="none" xmlns="http://www.w3.org/2000/svg">
<g filter="url(#filter0_b_639_17)">
<rect width="40" height="40" fill="white" fill-opacity="0.19"/>
<path d="M32.5249 12.5649C32.5245 13.7502 32.1441 14.9041 31.4394 15.8572C30.7347 16.8102 29.743 17.5122 28.6099 17.8599C28.8694 17.0143 29.0009 16.1345 28.9999 15.2499C29 13.6918 28.5949 12.1604 27.8244 10.8061C27.0539 9.45182 25.9444 8.32117 24.6049 7.52516C25.3475 7.18043 26.1562 7.00124 26.9749 7C28.4487 7.00257 29.8611 7.59018 30.9018 8.63368C31.9425 9.67718 32.5263 11.0912 32.5249 12.5649V12.5649ZM31.3999 19.45C30.7698 19.2735 30.0954 19.3544 29.5249 19.675C28.8835 20.0307 28.1717 20.2406 27.44 20.2899C27.137 20.7516 26.785 21.1791 26.3899 21.565C27.807 22.0313 29.0686 22.8782 30.0368 24.0131C31.0051 25.148 31.6427 26.5273 31.8799 28.0001H32.9149C33.2473 28.0047 33.5748 27.9194 33.8627 27.753C34.1505 27.5867 34.388 27.3456 34.55 27.0552C34.8478 26.4966 35.0024 25.8729 35 25.2399V24.1749C34.9999 21.9399 33.515 20.0048 31.3999 19.45V19.45ZM15.395 7.52516C14.6524 7.18043 13.8437 7.00124 13.025 7C11.696 7.00092 10.4114 7.47839 9.40445 8.34571C8.39749 9.21303 7.73494 10.4127 7.5371 11.7269C7.33926 13.041 7.61924 14.3826 8.32622 15.5079C9.03319 16.6333 10.1203 17.4678 11.3901 17.8599C11.1306 17.0143 10.9991 16.1345 11 15.2499C10.9999 13.6918 11.405 12.1604 12.1755 10.8061C12.9461 9.45182 14.0555 8.32117 15.395 7.52516V7.52516ZM13.61 21.5649C13.215 21.179 12.8629 20.7514 12.5599 20.2897C11.8282 20.2404 11.1164 20.0305 10.475 19.6749C9.90458 19.3543 9.23014 19.2734 8.60002 19.4499C6.48495 20.0047 5.00003 21.9397 5.00003 24.1749V25.2398C4.99762 25.8728 5.15224 26.4965 5.45003 27.0551C5.61024 27.3436 5.84526 27.5837 6.13035 27.7499C6.41544 27.9162 6.74007 28.0026 7.07009 27.9999H8.12C8.35727 26.5271 8.99487 25.1479 9.9631 24.013C10.9313 22.8781 12.1929 22.0312 13.61 21.5649ZM25.37 23.605C25.1099 23.5396 24.8431 23.5044 24.5749 23.5C24.0548 23.5011 23.5435 23.6353 23.09 23.89C22.1436 24.4115 21.0806 24.685 20 24.685C18.9194 24.685 17.8564 24.4115 16.9099 23.89C16.4564 23.6353 15.9452 23.5011 15.425 23.5C15.1568 23.5044 14.8901 23.5396 14.6299 23.605C13.3693 23.9468 12.2568 24.6951 11.4648 25.7338C10.6729 26.7724 10.2459 28.0434 10.25 29.3495V30.6547C10.2505 31.4194 10.4412 32.172 10.805 32.8446C11.18 33.5645 11.93 33.9996 12.77 33.9996H27.23C28.0699 33.9996 28.8199 33.5645 29.1949 32.8446C29.5587 32.172 29.7495 31.4194 29.75 30.6547V29.3498C29.7541 28.0436 29.3271 26.7726 28.5352 25.7339C27.7433 24.6952 26.6307 23.9468 25.37 23.605V23.605ZM26.7499 15.2499C26.7499 13.9149 26.3541 12.6099 25.6124 11.4999C24.8707 10.3898 23.8165 9.52467 22.5831 9.01378C21.3497 8.50289 19.9925 8.36922 18.6831 8.62967C17.3737 8.89012 16.171 9.53299 15.227 10.477C14.283 11.421 13.6401 12.6237 13.3797 13.9331C13.1192 15.2425 13.2529 16.5997 13.7638 17.8331C14.2747 19.0664 15.1398 20.1206 16.2499 20.8623C17.3599 21.604 18.6649 21.9999 20 21.9999C21.7902 21.9999 23.5071 21.2888 24.7729 20.0229C26.0388 18.757 26.7499 17.0402 26.7499 15.2499V15.2499Z" fill="white"/>
</g>
<defs>
<filter id="filter0_b_639_17" x="-5.33333" y="-5.33333" width="50.6667" height="50.6667" filterUnits="userSpaceOnUse" color-interpolation-filters="sRGB">
<feFlood flood-opacity="0" result="BackgroundImageFix"/>
<feGaussianBlur in="BackgroundImage" stdDeviation="2.66667"/>
<feComposite in2="SourceAlpha" operator="in" result="effect1_backgroundBlur_639_17"/>
<feBlend mode="normal" in="SourceGraphic" in2="effect1_backgroundBlur_639_17" result="shape"/>
</filter>
</defs>
</svg>
