<svg width="40" height="40" viewBox="0 0 40 40" fill="none" xmlns="http://www.w3.org/2000/svg">
<g filter="url(#filter0_b_639_17)">
<rect width="40" height="40" fill="white" fill-opacity="0.19"/>
<path d="M32.3178 13.537C28.3553 6.98475 22.3862 11.5432 22.3862 11.5432C21.9991 11.8377 21.2852 12.0798 20.8002 12.0809L19.2014 12.082C18.7163 12.0826 18.0025 11.8405 17.6159 11.546C17.6159 11.546 11.6463 6.98644 7.68327 13.5387C3.72139 20.0886 5.318 27.2219 5.318 27.2219C5.59771 28.9685 6.51965 30.134 8.25948 29.9876C9.99427 29.8418 13.7598 25.2839 13.7598 25.2839C14.0708 24.9083 14.7226 24.6015 15.2065 24.6015L24.7917 24.5998C25.2762 24.5998 25.9274 24.9066 26.2379 25.2822C26.2379 25.2822 30.0039 29.8401 31.7415 29.9859C33.4791 30.1323 34.4033 28.9657 34.6813 27.2202C34.6808 27.2202 36.2802 20.0881 32.3178 13.537ZM16.3981 18.8702H14.3427V20.8639C14.3427 20.8639 13.9075 21.1984 13.2339 21.1899C12.5615 21.1798 12.2572 20.8251 12.2572 20.8251V18.8707H10.3159C10.3159 18.8707 10.0737 18.6207 10.0088 17.9625C9.94504 17.3043 10.2768 16.7723 10.2768 16.7723H12.3327V14.7036C12.3327 14.7036 12.7556 14.4756 13.3637 14.493C13.9724 14.5122 14.4182 14.7425 14.4182 14.7425L14.4098 16.7717H16.3511C16.3511 16.7717 16.6901 17.2097 16.7181 17.739C16.746 18.2688 16.3981 18.8702 16.3981 18.8702ZM25.8256 21.1426C24.9254 21.1426 24.1999 20.4101 24.1999 19.5053C24.1999 18.5988 24.9254 17.8679 25.8256 17.8679C26.7218 17.8679 27.4529 18.5988 27.4529 19.5053C27.4529 20.4107 26.7218 21.1426 25.8256 21.1426ZM25.8256 16.6377C24.9254 16.6377 24.1999 15.9057 24.1999 15.0009C24.1999 14.0944 24.9254 13.3635 25.8256 13.3635C26.7218 13.3635 27.4529 14.0944 27.4529 15.0009C27.4529 15.9063 26.7218 16.6377 25.8256 16.6377ZM29.877 19.056C28.9768 19.056 28.2513 18.324 28.2513 17.4186C28.2513 16.5127 28.9768 15.7813 29.877 15.7813C30.7732 15.7813 31.5043 16.5127 31.5043 17.4186C31.5043 18.324 30.7732 19.056 29.877 19.056Z" fill="white"/>
</g>
<defs>
<filter id="filter0_b_639_17" x="-5.33333" y="-5.33333" width="50.6667" height="50.6667" filterUnits="userSpaceOnUse" color-interpolation-filters="sRGB">
<feFlood flood-opacity="0" result="BackgroundImageFix"/>
<feGaussianBlur in="BackgroundImage" stdDeviation="2.66667"/>
<feComposite in2="SourceAlpha" operator="in" result="effect1_backgroundBlur_639_17"/>
<feBlend mode="normal" in="SourceGraphic" in2="effect1_backgroundBlur_639_17" result="shape"/>
</filter>
</defs>
</svg>
