<svg width="512" height="512" viewBox="0 0 512 512" fill="none" xmlns="http://www.w3.org/2000/svg">
<rect width="512" height="512" fill="#5C5C5C"/>
<path d="M423.004 150.2C422.999 166.004 417.926 181.39 408.53 194.097C399.135 206.805 385.912 216.164 370.803 220.801C374.263 209.525 376.016 197.795 376.004 186.001C376.005 165.225 370.603 144.806 360.329 126.749C350.056 108.691 335.263 93.6159 317.403 83.0023C327.304 78.4058 338.087 76.0165 349.003 76C368.654 76.0343 387.486 83.8692 401.362 97.7827C415.238 111.696 423.023 130.55 423.004 150.2ZM408.004 242.003C399.602 239.649 390.609 240.728 383.003 245.003C374.452 249.745 364.96 252.544 355.204 253.201C351.165 259.357 346.47 265.058 341.203 270.203C360.098 276.421 376.919 287.713 389.829 302.845C402.739 317.977 411.24 336.367 414.404 356.005H428.204C432.637 356.067 437.003 354.929 440.841 352.711C444.679 350.493 447.846 347.278 450.005 343.407C453.976 335.959 456.037 327.642 456.005 319.202V305.002C456.004 275.201 436.205 249.4 408.004 242.003ZM194.602 83.0023C184.7 78.4058 173.918 76.0165 163.001 76C145.281 76.0123 128.153 82.3786 114.727 93.943C101.301 105.507 92.4664 121.503 89.8285 139.026C87.1906 156.548 90.9237 174.436 100.35 189.441C109.777 204.445 124.271 215.572 141.202 220.801C137.742 209.525 135.989 197.795 136.001 186.001C136 165.225 141.401 144.806 151.675 126.749C161.949 108.691 176.742 93.6159 194.602 83.0023ZM170.801 270.201C165.534 265.056 160.84 259.355 156.801 253.199C147.044 252.542 137.553 249.743 129.002 245.001C121.395 240.726 112.403 239.647 104.001 242.001C75.7997 249.398 56.0004 275.199 56.0004 305.002V319.2C55.9683 327.641 58.0298 335.957 62.0004 343.405C64.1367 347.252 67.2703 350.453 71.0715 352.67C74.8728 354.887 79.2012 356.038 83.6016 356.003H97.6005C100.764 336.365 109.266 317.975 122.176 302.843C135.086 287.711 151.907 276.419 170.801 270.201ZM327.604 297.403C324.135 296.532 320.578 296.062 317.002 296.003C310.067 296.017 303.251 297.807 297.203 301.203C284.584 308.157 270.41 311.803 256.002 311.803C241.594 311.803 227.421 308.157 214.802 301.203C208.754 297.807 201.938 296.017 195.002 296.003C191.426 296.062 187.869 296.532 184.401 297.403C167.593 301.961 152.758 311.938 142.199 325.787C131.64 339.636 125.946 356.583 126.001 373.998V391.4C126.007 401.596 128.55 411.631 133.401 420.6C138.401 430.199 148.401 436 159.601 436H352.404C363.603 436 373.604 430.199 378.603 420.6C383.454 411.631 385.997 401.596 386.004 391.4V374.002C386.06 356.586 380.366 339.638 369.807 325.789C359.248 311.939 344.413 301.961 327.604 297.403ZM346.003 186.001C346.003 168.2 340.725 150.8 330.835 135.999C320.946 121.198 306.89 109.663 290.444 102.851C273.999 96.0389 255.902 94.2565 238.444 97.7292C220.985 101.202 204.949 109.774 192.362 122.361C179.775 134.947 171.203 150.984 167.731 168.443C164.258 185.901 166.04 203.997 172.852 220.443C179.664 236.888 191.2 250.944 206 260.834C220.801 270.723 238.202 276.002 256.002 276.002C279.872 276.002 302.764 266.52 319.643 249.641C336.521 232.763 346.003 209.871 346.003 186.001Z" fill="white"/>
</svg>
