<svg width="512" height="512" viewBox="0 0 512 512" fill="none" xmlns="http://www.w3.org/2000/svg">
<rect width="512" height="512" fill="#5C5C5C"/>
<g clip-path="url(#clip0_558_26211)">
<path d="M420.237 170.679C367.404 83.3162 287.816 144.096 287.816 144.096C282.654 148.022 273.137 151.25 266.67 151.265L245.352 151.28C238.885 151.288 229.367 148.059 224.213 144.133C224.213 144.133 144.617 83.3387 91.7769 170.702C38.9518 258.035 60.24 353.145 60.24 353.145C63.9695 376.433 76.2621 391.973 99.4598 390.021C122.59 388.077 172.797 327.305 172.797 327.305C176.945 322.297 185.634 318.206 192.086 318.206L319.89 318.183C326.35 318.183 335.032 322.275 339.172 327.282C339.172 327.282 389.386 388.054 412.554 389.999C435.722 391.951 448.044 376.395 451.752 353.123C451.744 353.123 473.07 258.027 420.237 170.679ZM207.974 241.789H180.57V268.372C180.57 268.372 174.767 272.832 165.786 272.719C156.82 272.584 152.762 267.854 152.762 267.854V241.796H126.879C126.879 241.796 123.65 238.463 122.784 229.687C121.934 220.911 126.357 213.816 126.357 213.816H153.769V186.234C153.769 186.234 159.408 183.194 167.516 183.427C175.632 183.682 181.577 186.752 181.577 186.752L181.465 213.809H207.348C207.348 213.809 211.868 219.65 212.241 226.706C212.614 233.771 207.974 241.789 207.974 241.789ZM333.675 272.088C321.673 272.088 311.998 262.321 311.998 250.257C311.998 238.17 321.673 228.426 333.675 228.426C345.624 228.426 355.373 238.17 355.373 250.257C355.373 262.329 345.624 272.088 333.675 272.088ZM333.675 212.022C321.673 212.022 311.998 202.263 311.998 190.198C311.998 178.111 321.673 168.367 333.675 168.367C345.624 168.367 355.373 178.111 355.373 190.198C355.373 202.27 345.624 212.022 333.675 212.022ZM387.693 244.266C375.691 244.266 366.017 234.507 366.017 222.435C366.017 210.355 375.691 200.603 387.693 200.603C399.643 200.603 409.392 210.355 409.392 222.435C409.392 234.507 399.643 244.266 387.693 244.266Z" fill="white"/>
</g>
<defs>
<clipPath id="clip0_558_26211">
<rect width="400" height="400" fill="white" transform="translate(56 56)"/>
</clipPath>
</defs>
</svg>
